<?xml version="1.0" encoding="UTF-8"?> <svg xmlns="http://www.w3.org/2000/svg" xmlns:xlink="http://www.w3.org/1999/xlink" version="1.1" id="Laag_1" x="0px" y="0px" viewBox="0 0 516.6 121.6" style="enable-background:new 0 0 516.6 121.6;" xml:space="preserve"> <style type="text/css"> .st0{fill:#282858;} .st1{fill:#FFFFFF;} .st2{fill:#5AAFDB;} </style> <g> <path class="st0" d="M11.1,7.2h41.7c28.7,0,51.3,22.2,51.3,53.6c0,31.4-22.7,53.6-51.3,53.6H11.1V7.2z M51.9,91.9 C70,91.9,79.4,79,79.4,60.8c0-18.3-9.4-31.1-27.5-31.1H35v62.2H51.9z"></path> <path class="st0" d="M93.8,89l19.3-8.9c3,7.3,8.8,14.2,18.9,14.2c7.1,0,13.6-3.5,13.6-11.8c0-6.3-3.5-9.4-13.7-13.4l-6.6-2.6 c-14.3-5.7-27.5-13.6-27.5-31c0-18.6,15.6-29.9,34.1-29.9c18.9,0,30.2,11.5,35.3,22.8l-17.7,10c-4.7-8.2-10.1-11.6-16.8-11.6 c-6.5,0-11.5,3-11.5,9.1c0,4.7,2.7,8.3,13.9,12.8l7.2,2.9c19.3,7.7,27.9,16.5,27.9,31.2c0,22.3-19.9,33.1-38.1,33.1 C113.4,115.9,97.9,104.7,93.8,89z"></path> <path class="st0" d="M168.2,7.2h23.9v45.1l36.2-45.1h26.6l-39.9,48.6l43.2,58.6h-26.1L201,72.8l-8.9,11v30.5h-23.9V7.2z"></path> </g> <path class="st1" d="M253.7,95.3"></path> <g> <g> <path class="st2" d="M351.2,12.9h5.7c6.4,0,10.5,4.3,10.5,10.6S363.4,34,357,34h-5.7V12.9z M356.9,32.2c5.5,0,8.6-3.5,8.6-8.8 s-3.1-8.8-8.6-8.8h-3.8v17.6H356.9z"></path> <path class="st2" d="M376.5,12.9h11v1.8h-9.2v7.9h7.9v1.7h-7.9v8h9.5V34h-11.3V12.9z"></path> <path class="st2" d="M402.2,14.6h-5.8v-1.8h13.5v1.8h-5.8V34h-1.8V14.6z"></path> <path class="st2" d="M418.9,12.9h11v1.8h-9.2v7.9h7.9v1.7h-7.9v8h9.5V34h-11.3V12.9z"></path> <path class="st2" d="M437.9,23.4c0-6.4,4.8-10.9,10.7-10.9c2.5,0,5.8,0.8,8.1,3.9l-1.4,1c-1.9-2.6-4.6-3.2-6.7-3.2 c-4.9,0-8.9,3.6-8.9,9.1s4,9.1,8.9,9.1c2,0,4.7-0.6,6.7-3.2l1.4,1c-2.4,3.2-5.6,3.9-8.1,3.9C442.8,34.3,437.9,29.9,437.9,23.4z"></path> <path class="st2" d="M470.7,14.6h-5.8v-1.8h13.5v1.8h-5.8V34h-1.8V14.6z"></path> <path class="st2" d="M487.3,12.9h1.8V34h-1.8V12.9z"></path> <path class="st2" d="M498.9,12.9h11v1.8h-9.2v7.9h7.9v1.7h-7.9v8h9.5V34h-11.3V12.9z"></path> <path class="st2" d="M350.5,69.3l1.5-0.7c0.6,2.4,2.7,4,5.4,4c2.5,0,4.6-1.4,4.6-4c0-2.5-1.8-3.6-4.4-4.6l-1.4-0.6 c-3.2-1.2-4.8-3-4.8-5.6c0-3.1,2.5-5.2,5.8-5.2c3.4,0,5.4,2.1,6.2,4.4l-1.5,0.7c-0.8-2-2.3-3.4-4.7-3.4c-2.3,0-4,1.3-4,3.5 c0,1.7,1,3,3.6,4l1.4,0.6c3.3,1.3,5.7,2.8,5.7,6.2c0,3.8-3,5.8-6.5,5.8C353.9,74.4,351.2,72.3,350.5,69.3z"></path> <path class="st2" d="M372.9,52.9h11v1.8h-9.2v7.9h7.9v1.7h-7.9v8h9.5v1.8h-11.3V52.9z"></path> <path class="st2" d="M400.5,66.4h-0.4h-4.7v7.7h-1.8V52.9h6.5c4.4,0,7.1,2.9,7.1,6.7c0,3.2-1.7,5.6-4.8,6.4l5.4,8h-2.1L400.5,66.4 z M399.8,64.7c3.3,0,5.4-1.8,5.4-5c0-3.2-2.1-5-5.4-5h-4.5v10H399.8z"></path> <path class="st2" d="M414.7,52.9h2l7.4,18.7l7.4-18.7h2l-8.5,21.1h-1.8L414.7,52.9z"></path> <path class="st2" d="M442.1,52.9h1.8v21.1h-1.8V52.9z"></path> <path class="st2" d="M453.3,63.5c0-6.4,4.8-10.9,10.7-10.9c2.5,0,5.8,0.8,8.1,3.9l-1.4,1c-1.9-2.6-4.6-3.2-6.7-3.2 c-4.9,0-8.9,3.6-8.9,9.1s4,9.1,8.9,9.1c2,0,4.7-0.6,6.7-3.2l1.4,1c-2.4,3.2-5.6,3.9-8.1,3.9C458.2,74.4,453.3,69.9,453.3,63.5z"></path> <path class="st2" d="M481.3,52.9h11v1.8h-9.2v7.9h7.9v1.7h-7.9v8h9.5v1.8h-11.3V52.9z"></path> <path class="st2" d="M351.2,93h1.8v12.4L363.9,93h2.2l-8.6,9.8l9.3,11.4h-2.2l-8.3-10.1l-3.3,3.7v6.3h-1.8V93z"></path> <path class="st2" d="M375.5,93h11v1.8h-9.2v7.9h7.9v1.7h-7.9v8h9.5v1.8h-11.3V93z"></path> <path class="st2" d="M396.1,93h2.1l8.8,18.7l8.8-18.7h2.1v21.1H416V96.8h-0.1l-8.2,17.4h-1.4l-8.2-17.4h-0.1v17.4h-1.8V93z"></path> <path class="st2" d="M427.6,93h6.6c4.5,0,7.1,2.9,7.1,6.7c0,3.9-2.6,6.8-7.1,6.8h-4.8v7.6h-1.8V93z M434,104.8 c3.3,0,5.4-1.8,5.4-5c0-3.2-2.1-5-5.4-5h-4.6v10H434z"></path> <path class="st2" d="M450.4,93h11v1.8h-9.2v7.9h7.9v1.7h-7.9v8h9.5v1.8h-11.3V93z"></path> <path class="st2" d="M471,93h1.9l12.8,18h0.1V93h1.8v21.1h-1.9l-12.8-18h-0.1v18H471V93z"></path> </g> </g> <path class="st2" d="M280.5,70.5c-0.8,1.1-1.4,2.3-1.8,3.7c-1.8,6.3,1.8,12.8,8.1,14.6c1.7,0.5,3.5,0.6,5.2,0.3 c1.2-0.2,1.2-0.9,0.1-1.5c-6.1-3.3-10-9.7-10.2-16.5C281.9,69.8,281.2,69.5,280.5,70.5z"></path> <path class="st2" d="M271.7,74.3c1.7-7.4,9-21.2,19.5-37.2c3.4,5.1,6.4,10,9,14.5l13.5-10.7c-6.5-11-13.3-20.6-15.6-23.9l-6.9-9.6 l-6.9,9.6c-5,7-30.1,42.5-30.1,60.1c0,3.4,0.5,6.7,1.4,9.9L271.7,74.3z"></path> <path class="st0" d="M302.7,55.8c5.4,9.7,8.5,17.4,8.5,21.3c0,11-8.9,19.9-19.9,19.9c-9.8,0-18-7.2-19.6-16.5l-14.3,11.3 c5.7,13.1,18.7,22.2,33.9,22.2c20.4,0,37-16.6,37-37c0-8.3-5.6-20.6-12-32L302.7,55.8z"></path> <path class="st0" d="M267.9,83.4l-27.7,22l0,0l-6.9,5.7l2.8,3.3h22.2l19.9-16.5c-3.3-3.6-6.2-7.6-9-11.6 C268.6,85.4,268.2,84.4,267.9,83.4z"></path> </svg> 