<?xml version="1.0" encoding="UTF-8"?> <svg xmlns="http://www.w3.org/2000/svg" viewBox="0 0 499.1 110.3"><defs><style>.d{fill:#fff;}</style></defs><g id="a"></g><g id="b"><g id="c"><g><path class="d" d="M340.1,7.3h5.7c6.4,0,10.5,4.3,10.5,10.6s-4,10.5-10.4,10.5h-5.7V7.3h-.1Zm5.7,19.3c5.5,0,8.6-3.5,8.6-8.8s-3.1-8.8-8.6-8.8h-3.8V26.6h3.8Z"></path><path class="d" d="M365.4,7.3h11v1.8h-9.2v7.9h7.9v1.7h-7.9v8h9.5v1.7h-11.3V7.3Z"></path><path class="d" d="M391.1,9h-5.8v-1.8h13.5v1.8h-5.8V28.4h-1.8V9h-.1Z"></path><path class="d" d="M407.8,7.3h11v1.8h-9.2v7.9h7.9v1.7h-7.9v8h9.5v1.7h-11.3V7.3Z"></path><path class="d" d="M426.8,17.8c0-6.4,4.8-10.9,10.7-10.9,2.5,0,5.8,.8,8.1,3.9l-1.4,1c-1.9-2.6-4.6-3.2-6.7-3.2-4.9,0-8.9,3.6-8.9,9.1s4,9.1,8.9,9.1c2,0,4.7-.6,6.7-3.2l1.4,1c-2.4,3.2-5.6,3.9-8.1,3.9-5.8,.2-10.7-4.2-10.7-10.7Z"></path><path class="d" d="M459.6,9h-5.8v-1.8h13.5v1.8h-5.8V28.4h-1.8V9h-.1Z"></path><path class="d" d="M476.2,7.3h1.8V28.4h-1.8V7.3Z"></path><path class="d" d="M487.8,7.3h11v1.8h-9.2v7.9h7.9v1.7h-7.9v8h9.5v1.7h-11.3V7.3Z"></path><path class="d" d="M339.4,63.7l1.5-.7c.6,2.4,2.7,4,5.4,4,2.5,0,4.6-1.4,4.6-4s-1.8-3.6-4.4-4.6l-1.4-.6c-3.2-1.2-4.8-3-4.8-5.6,0-3.1,2.5-5.2,5.8-5.2s5.4,2.1,6.2,4.4l-1.5,.7c-.8-2-2.3-3.4-4.7-3.4s-4,1.3-4,3.5c0,1.7,1,3,3.6,4l1.4,.6c3.3,1.3,5.7,2.8,5.7,6.2,0,3.8-3,5.8-6.5,5.8-3.5,0-6.2-2.1-6.9-5.1Z"></path><path class="d" d="M361.8,47.3h11v1.8h-9.2v7.9h7.9v1.7h-7.9v8h9.5v1.8h-11.3v-21.2Z"></path><path class="d" d="M389.4,60.8h-5.1v7.7h-1.8v-21.2h6.5c4.4,0,7.1,2.9,7.1,6.7,0,3.2-1.7,5.6-4.8,6.4l5.4,8h-2.1l-5.2-7.6Zm-.7-1.7c3.3,0,5.4-1.8,5.4-5s-2.1-5-5.4-5h-4.5v10h4.5Z"></path><path class="d" d="M403.6,47.3h2l7.4,18.7,7.4-18.7h2l-8.5,21.1h-1.8l-8.5-21.1Z"></path><path class="d" d="M431,47.3h1.8v21.1h-1.8v-21.1Z"></path><path class="d" d="M442.2,57.9c0-6.4,4.8-10.9,10.7-10.9,2.5,0,5.8,.8,8.1,3.9l-1.4,1c-1.9-2.6-4.6-3.2-6.7-3.2-4.9,0-8.9,3.6-8.9,9.1s4,9.1,8.9,9.1c2,0,4.7-.6,6.7-3.2l1.4,1c-2.4,3.2-5.6,3.9-8.1,3.9-5.8,.2-10.7-4.3-10.7-10.7Z"></path><path class="d" d="M470.2,47.3h11v1.8h-9.2v7.9h7.9v1.7h-7.9v8h9.5v1.8h-11.3v-21.2Z"></path><path class="d" d="M340.1,87.4h1.8v12.4l10.9-12.4h2.2l-8.6,9.8,9.3,11.4h-2.2l-8.3-10.1-3.3,3.7v6.3h-1.8v-21.1Z"></path><path class="d" d="M364.4,87.4h11v1.8h-9.2v7.9h7.9v1.7h-7.9v8h9.5v1.8h-11.3v-21.2Z"></path><path class="d" d="M385,87.4h2.1l8.8,18.7,8.8-18.7h2.1v21.1h-1.9v-17.3h-.1l-8.2,17.4h-1.4l-8.2-17.4h-.1v17.4h-1.8v-21.2h-.1Z"></path><path class="d" d="M416.5,87.4h6.6c4.5,0,7.1,2.9,7.1,6.7s-2.6,6.8-7.1,6.8h-4.8v7.6h-1.8v-21.1h0Zm6.4,11.8c3.3,0,5.4-1.8,5.4-5s-2.1-5-5.4-5h-4.6v10h4.6Z"></path><path class="d" d="M439.3,87.4h11v1.8h-9.2v7.9h7.9v1.7h-7.9v8h9.5v1.8h-11.3v-21.2Z"></path><path class="d" d="M459.9,87.4h1.9l12.8,18h.1v-18h1.8v21.1h-1.9l-12.8-18h-.1v18h-1.8v-21.1Z"></path></g><g><path class="d" d="M270.8,65.5c0-1.3-.7-1.6-1.4-.6-.8,1.1-1.4,2.3-1.8,3.7-1.8,6.3,1.8,12.8,8.1,14.6,1.7,.5,3.5,.6,5.2,.3,1.2-.2,1.2-.9,.1-1.5-6.1-3.3-10-9.7-10.2-16.5Z"></path><path class="d" d="M244.5,81.4l16.1-12.7c1.7-7.4,9-21.2,19.5-37.2,3.4,5.1,6.4,10,9,14.5l13.5-10.7c-6.5-11-13.3-20.6-15.6-23.9l-6.9-9.6-6.9,9.6c-5,7-30.1,42.5-30.1,60.1,0,3.4,.5,6.7,1.4,9.9Z"></path><path class="d" d="M305.2,39.4l-13.6,10.8c5.4,9.7,8.5,17.4,8.5,21.3,0,11-8.9,19.9-19.9,19.9-9.8,0-18-7.2-19.6-16.5l-3.77,2.98s-.02-.05-.03-.08l-20.53,16.31-32.37-43.91L243.8,1.6h-26.6l-36.2,45.1V1.6h-23.9V66.31c-3.54-8.57-11.91-14.73-25.9-20.31l-7.2-2.9c-11.2-4.5-13.9-8.1-13.9-12.8,0-6.1,5-9.1,11.5-9.1s12.1,3.4,16.8,11.6l17.7-10C151,11.5,139.7,0,120.8,0s-33.34,10.77-34.07,28.58C78.09,11.98,61.32,1.6,41.7,1.6H0V108.8H41.7c17.54,0,32.85-8.36,42.08-22.06,5.3,13.92,19.88,23.56,37.22,23.56,14.75,0,30.62-7.1,36.1-21.66v20.06h23.9v-30.5l8.9-11,31.1,41.6h26.2l10.08-8.36c6.29,4.98,14.25,7.96,22.92,7.96,20.4,0,37-16.6,37-37,0-8.3-5.6-20.6-12-32ZM40.8,86.3H23.9V24.1h16.9c18.1,0,27.5,12.8,27.5,31.1s-9.4,31.1-27.5,31.1Zm80.1,2.4c-10.1,0-15.9-6.9-18.9-14.2l-15.1,6.96c3.89-7.6,6.1-16.48,6.1-26.26,0-2.84-.19-5.6-.55-8.27,5.18,6.44,13.27,10.6,21.75,13.97l6.6,2.6c10.2,4,13.7,7.1,13.7,13.4,0,8.3-6.5,11.8-13.6,11.8Z"></path></g></g></g></svg> 